<?xml version="1.0" encoding="UTF-8"?>
<svg width="100px" height="100px" viewBox="0 0 100 100" version="1.1" xmlns="http://www.w3.org/2000/svg" xmlns:xlink="http://www.w3.org/1999/xlink">
    <!-- Generator: Sketch 50.2 (55047) - http://www.bohemiancoding.com/sketch -->
    <title>Artboard</title>
    <desc>Created with Sketch.</desc>
    <defs></defs>
    <g id="Artboard" stroke="none" stroke-width="1" fill="none" fill-rule="evenodd">
        <circle id="Oval" fill="#58A4B0" cx="50" cy="50" r="50"></circle>
        <g id="Group" transform="translate(25.000000, 20.000000)" fill="#FFFFFF" fill-rule="nonzero">
            <path d="M30.9,27 L45,27 L45,30 C45,31.8 46.2,33 48,33 C49.8,33 51,31.8 51,30 L51,21 L30,0 L6.3,0 C3,0 0,3 0,6.3 L0,47.7 C0,51 3,54 6.3,54 L27,54 C28.8,54 30,52.8 30,51 C30,49.2 28.8,48 27,48 L6.3,48 C6.3,48 6,47.7 6,47.7 L6,6.3 C6,6.3 6.3,6 6.3,6 L24,6 L24,20.1 C24,24 27,27 30.9,27 Z M30,20.1 L30,8.7 L42.3,21 L30.9,21 C30.3,21 30,20.7 30,20.1 Z" id="Shape"></path>
            <path d="M57,48 L51,48 L51,42 C51,40.2 49.8,39 48,39 C46.2,39 45,40.2 45,42 L45,48 L39,48 C37.2,48 36,49.2 36,51 C36,52.8 37.2,54 39,54 L45,54 L45,60 C45,61.8 46.2,63 48,63 C49.8,63 51,61.8 51,60 L51,54 L57,54 C58.8,54 60,52.8 60,51 C60,49.2 58.8,48 57,48 Z" id="Shape"></path>
        </g>
    </g>
</svg>